<?xml version="1.0" encoding="UTF-8"?>
<svg id="Lag_1" data-name="Lag 1" xmlns="http://www.w3.org/2000/svg" viewBox="0 0 4000 4000">
  <defs>
    <style>
      .cls-1 {
        fill: #c9955d;
      }
    </style>
  </defs>
  <path class="cls-1" d="M2599.5,1136.24c78.64-39.02,157.28-78.05,235.92-117.07-32.32-38.57-311.94-361.33-759.13-358.56-453.94,2.81-925.89,340.09-911.38,796.8,13.91,438.06,467.95,752.92,911.38,752.54,454.02-.39,729.87-331.11,759.13-367.42-77.43-35.64-154.86-71.28-232.29-106.92-35.41,28.11-353.78,272.63-716.35,157.71-148.89-47.19-418.75-190.98-427.66-427.47-9.02-239.23,255.28-406.45,417.4-464.66,360.22-129.34,689.14,109.64,722.97,135.05Z"/>
  <path class="cls-1" d="M1902.16,1452.39c111.79-37.95,223.58-75.9,335.37-113.86v2000.88h-626.3v-163.52c93.19-12.32,186.39-24.64,279.58-36.97,11.19-54.8,22.38-109.6,33.57-164.4-104.38-6.21-208.77-12.42-313.15-18.63v-167.89c104.38-5.99,208.77-11.98,313.15-17.97-11.89-58.66-23.78-117.32-35.67-175.97-92.49-9.97-184.99-19.94-277.48-29.91v-154.99h281.19c3.25-318.92,6.5-637.84,9.75-956.75Z"/>
</svg>